<mxfile host="65bd71144e">
    <diagram id="ykRchyDMGxq92u7Dl3xV" name="PÃ¡gina-1">
        <mxGraphModel dx="1537" dy="413" grid="1" gridSize="10" guides="1" tooltips="1" connect="1" arrows="1" fold="1" page="1" pageScale="1" pageWidth="827" pageHeight="1169" math="0" shadow="0">
            <root>
                <mxCell id="0"/>
                <mxCell id="1" parent="0"/>
                <mxCell id="4" value="" style="edgeStyle=none;html=1;fillColor=#d80073;strokeColor=#A50040;" edge="1" parent="1" source="2" target="3">
                    <mxGeometry relative="1" as="geometry"/>
                </mxCell>
                <mxCell id="2" value="&lt;b&gt;INICIO&lt;/b&gt;" style="ellipse;whiteSpace=wrap;html=1;fillColor=#e51400;fontColor=#ffffff;strokeColor=#B20000;" vertex="1" parent="1">
                    <mxGeometry x="294" y="50" width="120" height="80" as="geometry"/>
                </mxCell>
                <mxCell id="6" value="" style="edgeStyle=none;html=1;fillColor=#d80073;strokeColor=#A50040;" edge="1" parent="1" source="3" target="5">
                    <mxGeometry relative="1" as="geometry"/>
                </mxCell>
                <mxCell id="3" value="&lt;b&gt;Precio_costo&lt;/b&gt;" style="shape=parallelogram;perimeter=parallelogramPerimeter;whiteSpace=wrap;html=1;fixedSize=1;fillColor=#008a00;fontColor=#ffffff;strokeColor=#005700;" vertex="1" parent="1">
                    <mxGeometry x="294" y="200" width="120" height="60" as="geometry"/>
                </mxCell>
                <mxCell id="9" style="edgeStyle=none;html=1;entryX=0.5;entryY=0;entryDx=0;entryDy=0;fillColor=#d80073;strokeColor=#A50040;" edge="1" parent="1" source="5" target="7">
                    <mxGeometry relative="1" as="geometry">
                        <Array as="points">
                            <mxPoint x="575" y="375"/>
                        </Array>
                    </mxGeometry>
                </mxCell>
                <mxCell id="11" style="edgeStyle=none;html=1;entryX=0.5;entryY=0;entryDx=0;entryDy=0;fillColor=#d80073;strokeColor=#A50040;" edge="1" parent="1" source="5" target="10">
                    <mxGeometry relative="1" as="geometry">
                        <Array as="points">
                            <mxPoint x="190" y="375"/>
                        </Array>
                    </mxGeometry>
                </mxCell>
                <mxCell id="5" value="&lt;b&gt;Precio_costo&amp;lt;300&lt;/b&gt;" style="rhombus;whiteSpace=wrap;html=1;fillColor=#e3c800;fontColor=#000000;strokeColor=#B09500;" vertex="1" parent="1">
                    <mxGeometry x="300" y="330" width="102" height="90" as="geometry"/>
                </mxCell>
                <mxCell id="19" style="edgeStyle=none;html=1;fillColor=#d80073;strokeColor=#A50040;" edge="1" parent="1" source="7">
                    <mxGeometry relative="1" as="geometry">
                        <mxPoint x="340" y="740" as="targetPoint"/>
                        <Array as="points">
                            <mxPoint x="575" y="740"/>
                        </Array>
                    </mxGeometry>
                </mxCell>
                <mxCell id="7" value="&lt;b&gt;ganancia=0.15*precio_costo&lt;/b&gt;" style="rounded=0;whiteSpace=wrap;html=1;fillColor=#b0e3e6;strokeColor=#0e8088;" vertex="1" parent="1">
                    <mxGeometry x="490" y="430" width="170" height="60" as="geometry"/>
                </mxCell>
                <mxCell id="15" style="edgeStyle=none;html=1;entryX=0.5;entryY=0;entryDx=0;entryDy=0;fillColor=#d80073;strokeColor=#A50040;" edge="1" parent="1" source="10" target="12">
                    <mxGeometry relative="1" as="geometry">
                        <Array as="points">
                            <mxPoint x="354" y="480"/>
                        </Array>
                    </mxGeometry>
                </mxCell>
                <mxCell id="28" style="edgeStyle=none;html=1;entryX=0.5;entryY=0;entryDx=0;entryDy=0;fillColor=#d80073;strokeColor=#A50040;" edge="1" parent="1" source="10" target="13">
                    <mxGeometry relative="1" as="geometry">
                        <Array as="points">
                            <mxPoint x="15" y="480"/>
                        </Array>
                    </mxGeometry>
                </mxCell>
                <mxCell id="10" value="&lt;b&gt;Precio_costo&amp;lt;=6000&lt;/b&gt;" style="rhombus;whiteSpace=wrap;html=1;fillColor=#e3c800;fontColor=#000000;strokeColor=#B09500;" vertex="1" parent="1">
                    <mxGeometry x="110" y="440" width="160" height="80" as="geometry"/>
                </mxCell>
                <mxCell id="18" style="edgeStyle=none;html=1;entryX=0.65;entryY=0.85;entryDx=0;entryDy=0;entryPerimeter=0;fillColor=#d80073;strokeColor=#A50040;" edge="1" parent="1" source="12" target="16">
                    <mxGeometry relative="1" as="geometry">
                        <Array as="points">
                            <mxPoint x="354" y="680"/>
                        </Array>
                    </mxGeometry>
                </mxCell>
                <mxCell id="12" value="&lt;b&gt;Ganancia=500&lt;/b&gt;" style="rounded=0;whiteSpace=wrap;html=1;fillColor=#b0e3e6;strokeColor=#0e8088;" vertex="1" parent="1">
                    <mxGeometry x="294" y="520" width="120" height="60" as="geometry"/>
                </mxCell>
                <mxCell id="29" style="edgeStyle=none;html=1;fillColor=#d80073;strokeColor=#A50040;" edge="1" parent="1" source="13" target="16">
                    <mxGeometry relative="1" as="geometry">
                        <Array as="points">
                            <mxPoint x="15" y="680"/>
                        </Array>
                    </mxGeometry>
                </mxCell>
                <mxCell id="13" value="&lt;b&gt;Ganancia=0.25*precio_costo&lt;/b&gt;" style="rounded=0;whiteSpace=wrap;html=1;fillColor=#b0e3e6;strokeColor=#0e8088;" vertex="1" parent="1">
                    <mxGeometry x="-70" y="530" width="170" height="60" as="geometry"/>
                </mxCell>
                <mxCell id="21" value="" style="edgeStyle=none;html=1;fillColor=#d80073;strokeColor=#A50040;" edge="1" parent="1" source="16" target="20">
                    <mxGeometry relative="1" as="geometry">
                        <Array as="points">
                            <mxPoint x="190" y="740"/>
                        </Array>
                    </mxGeometry>
                </mxCell>
                <mxCell id="16" value="" style="shape=waypoint;sketch=0;size=6;pointerEvents=1;points=[];fillColor=#d80073;resizable=0;rotatable=0;perimeter=centerPerimeter;snapToPoint=1;rounded=0;fontColor=#ffffff;strokeColor=#A50040;" vertex="1" parent="1">
                    <mxGeometry x="180" y="670" width="20" height="20" as="geometry"/>
                </mxCell>
                <mxCell id="23" value="" style="edgeStyle=none;html=1;fillColor=#d80073;strokeColor=#A50040;" edge="1" parent="1" source="20" target="22">
                    <mxGeometry relative="1" as="geometry"/>
                </mxCell>
                <mxCell id="20" value="" style="shape=waypoint;sketch=0;size=6;pointerEvents=1;points=[];fillColor=#d80073;resizable=0;rotatable=0;perimeter=centerPerimeter;snapToPoint=1;rounded=0;fontColor=#ffffff;strokeColor=#A50040;" vertex="1" parent="1">
                    <mxGeometry x="330" y="730" width="20" height="20" as="geometry"/>
                </mxCell>
                <mxCell id="25" value="" style="edgeStyle=none;html=1;fillColor=#d80073;strokeColor=#A50040;" edge="1" parent="1" source="22" target="24">
                    <mxGeometry relative="1" as="geometry"/>
                </mxCell>
                <mxCell id="22" value="&lt;b&gt;precio_venta=precio_costo*ganancia&lt;/b&gt;" style="whiteSpace=wrap;html=1;sketch=0;rounded=0;fillColor=#647687;fontColor=#ffffff;strokeColor=#314354;" vertex="1" parent="1">
                    <mxGeometry x="230" y="810" width="220" height="60" as="geometry"/>
                </mxCell>
                <mxCell id="27" value="" style="edgeStyle=none;html=1;fillColor=#d80073;strokeColor=#A50040;" edge="1" parent="1" source="24" target="26">
                    <mxGeometry relative="1" as="geometry"/>
                </mxCell>
                <mxCell id="24" value="&lt;b&gt;Precio_Venta&lt;/b&gt;" style="shape=document;whiteSpace=wrap;html=1;boundedLbl=1;sketch=0;rounded=0;fillColor=#6d8764;fontColor=#ffffff;strokeColor=#3A5431;" vertex="1" parent="1">
                    <mxGeometry x="280" y="940" width="120" height="80" as="geometry"/>
                </mxCell>
                <mxCell id="26" value="FIN" style="ellipse;whiteSpace=wrap;html=1;fillColor=#e51400;fontColor=#ffffff;strokeColor=#B20000;" vertex="1" parent="1">
                    <mxGeometry x="282" y="1090" width="120" height="80" as="geometry"/>
                </mxCell>
                <mxCell id="30" value="&lt;font color=&quot;#009900&quot;&gt;TRUE&lt;/font&gt;" style="text;html=1;align=center;verticalAlign=middle;resizable=0;points=[];autosize=1;strokeColor=none;fillColor=none;" vertex="1" parent="1">
                    <mxGeometry x="400" y="345" width="60" height="30" as="geometry"/>
                </mxCell>
                <mxCell id="31" value="&lt;font color=&quot;#cc0000&quot;&gt;FALSE&lt;/font&gt;" style="text;html=1;align=center;verticalAlign=middle;resizable=0;points=[];autosize=1;strokeColor=none;fillColor=none;" vertex="1" parent="1">
                    <mxGeometry x="250" y="345" width="60" height="30" as="geometry"/>
                </mxCell>
                <mxCell id="32" value="&lt;font color=&quot;#009900&quot;&gt;TRUE&lt;/font&gt;" style="text;html=1;align=center;verticalAlign=middle;resizable=0;points=[];autosize=1;strokeColor=none;fillColor=none;" vertex="1" parent="1">
                    <mxGeometry x="260" y="455" width="60" height="30" as="geometry"/>
                </mxCell>
                <mxCell id="33" value="&lt;font color=&quot;#cc0000&quot;&gt;FALSE&lt;/font&gt;" style="text;html=1;align=center;verticalAlign=middle;resizable=0;points=[];autosize=1;strokeColor=none;fillColor=none;" vertex="1" parent="1">
                    <mxGeometry x="50" y="455" width="60" height="30" as="geometry"/>
                </mxCell>
            </root>
        </mxGraphModel>
    </diagram>
</mxfile>